# xmcd CD database file
#
# Track frame offsets:
#	150
#	18620
#	36467
#	57430
#	73082
#	87440
#	110777
#	127190
#	155465
#	175715
#	193307
#	213060
#
# Disc length: 3131 seconds
#
# Revision: 3
# Processed by: cddbd v1.4PL0 Copyright (c) Steve Scherf et al.
# Submitted via: CDex 1.50
#
DISCID=b60c390c
DTITLE=Rolf Wikström - Himlen år blå
DYEAR=1996
DGENRE=Blues
TTITLE0=Kom till mig kvinna
TTITLE1=Mitt hjärta är ditt
TTITLE2=Du är så jävla vacker
TTITLE3=Bedragen och besviken
TTITLE4=Du kommer att  ångra dig
TTITLE5=Sluta upp med att ge mig skulden
TTITLE6=En helvetes vacker kvinna (Blues)
TTITLE7=Bortom synd och skam
TTITLE8=Jorden är ett dårhus
TTITLE9=Bädda med rena lakan
TTITLE10=I denna värld
TTITLE11=Himlen är blå
EXTD=YEAR: 1996
EXTT0=
EXTT1=
EXTT2=
EXTT3=
EXTT4=
EXTT5=
EXTT6=
EXTT7=
EXTT8=
EXTT9=
EXTT10=
EXTT11=
PLAYORDER=
